<svg width="1135.18" height="814.22" xmlns="http://www.w3.org/2000/svg" xmlns:xlink="http://www.w3.org/1999/xlink">
 <defs>
  <linearGradient y2="0.000362" x2="0.499999" y1="1" x1="0.499999" id="a846f69c-c3f1-49f3-adee-5a4e8443ee4e">
   <stop stop-opacity="0.25" stop-color="gray" offset="0"/>
   <stop stop-opacity="0.12" stop-color="gray" offset="0.54"/>
   <stop stop-opacity="0.1" stop-color="gray" offset="1"/>
  </linearGradient>
  <linearGradient xlink:href="#a846f69c-c3f1-49f3-adee-5a4e8443ee4e" y2="544.13" x2="748.15" y1="567.16" x1="748.15" id="b1395abd-e294-4466-9af9-40f9f1f4ad0f"/>
  <linearGradient xlink:href="#a846f69c-c3f1-49f3-adee-5a4e8443ee4e" y2="42.89" x2="556.93" y1="707.16" x1="556.93" id="a8b11853-451e-4181-8600-fa718044326b"/>
  <linearGradient y2="1" x2="0.500211" y1="0" x1="0.500211" id="f1ea05b4-3102-498a-ab85-05d222a08540">
   <stop stop-color="#e0e0e0" offset="0"/>
   <stop stop-color="#fccc63" offset="0.31"/>
   <stop stop-color="#f55f44" offset="0.77"/>
  </linearGradient>
  <linearGradient xlink:href="#f1ea05b4-3102-498a-ab85-05d222a08540" y2="692.54" x2="534.05" y1="628.14" x1="534.05" id="a65a9945-4cea-45de-8969-2abf9ed9c602"/>
  <linearGradient xlink:href="#f1ea05b4-3102-498a-ab85-05d222a08540" y2="692.54" x2="582.35" y1="628.14" x1="582.35" id="e83da883-60d3-4fc8-a1fc-2d21e84cc652"/>
  <linearGradient xlink:href="#f1ea05b4-3102-498a-ab85-05d222a08540" y2="692.54" x2="660.3" y1="628.14" x1="660.3" id="e7319a41-e0d4-4be9-9de6-9ff87ed2cc66"/>
  <linearGradient xlink:href="#a846f69c-c3f1-49f3-adee-5a4e8443ee4e" y2="340.57" x2="766.05" y1="409.23" x1="766.05" id="a8b1f8cd-6e4b-4699-9cd1-501c51b12a87"/>
  <linearGradient xlink:href="#a846f69c-c3f1-49f3-adee-5a4e8443ee4e" y2="529.94" x2="331.05" y1="577.85" x1="331.05" id="ef97273a-5cfd-4109-a624-feeb24fdeadc"/>
 </defs>
 <title>Outer space</title>
 <g>
  <title>background</title>
  <rect fill="none" id="canvas_background" height="402" width="582" y="-1" x="-1"/>
 </g>
 <g>
  <title>Layer 1</title>
  <path opacity="0.74" id="svg_1" fill="#6c63ff" d="m978,694.360001a139.92,139.92 0 0 1 -27.7,-0.37c-101.12,-11.18 -238.82,-8 -351.07,61.55c-155.24,96.17 -398.53,13.84 -505.85,-30.95c-82,-34.21 -124.57,-118 -99,-196.65c0.36,-1.11 0.73,-2.22 1.12,-3.33c16.09,-46.74 47.85,-83.32 87.18,-102.71c34.28,-16.9 84.33,-52.19 106.6,-120c9.2,-28 21.82,-54.34 38.21,-77.3c43.89,-61.49 135.77,-153.06 293.79,-152.49a254.66,254.66 0 0 1 81.41,13.78c57.73,19.67 109.87,59.66 149.63,115.1c25.37,35.36 63.39,68.23 117.82,70.91c75.54,3.74 147.63,38.91 201.71,101.5c1.56,1.8 3.1,3.61 4.64,5.44c96.29,114.71 29.41,304.34 -98.49,315.52z"/>
  <g id="svg_2" opacity="0.7">
   <circle id="svg_3" fill="url(#a846f69c-c3f1-49f3-adee-5a4e8443ee4e)" r="13.8" cy="683.31" cx="277.46"/>
  </g>
  <circle id="svg_4" opacity="0.2" r="13.18" cy="683.31" cx="277.46"/>
  <circle id="svg_5" fill="#fff" r="5.1" cy="414.14" cx="203.11"/>
  <circle id="svg_6" fill="#fff" r="5.1" cy="710.14" cx="567.11"/>
  <circle id="svg_7" fill="#fff" r="2.85" cy="736.14" cx="352.11"/>
  <circle id="svg_8" fill="#fff" r="2.85" cy="598.14" cx="983.11"/>
  <circle id="svg_9" fill="#fff" r="2.85" cy="342.14" cx="820.11"/>
  <circle id="svg_10" fill="#fff" r="2.85" cy="467.14" cx="1051.11"/>
  <circle id="svg_11" fill="#fff" r="5.1" cy="247.14" cx="293.11"/>
  <polygon id="svg_12" fill="#fff" points="152.94 592.21 148.4 592.21 148.4 587.67 146.55 587.67 146.55 592.21 142.01 592.21 142.01 594.06 146.55 594.06 146.55 598.59 148.4 598.59 148.4 594.06 152.94 594.06 152.94 592.21"/>
  <polygon id="svg_13" fill="#fff" points="266.94 590.21 262.4 590.21 262.4 585.67 260.55 585.67 260.55 590.21 256.01 590.21 256.01 592.06 260.55 592.06 260.55 596.59 262.4 596.59 262.4 592.06 266.94 592.06 266.94 590.21"/>
  <polygon id="svg_14" fill="#fff" points="429.94 682.21 425.4 682.21 425.4 677.67 423.55 677.67 423.55 682.21 419.01 682.21 419.01 684.06 423.55 684.06 423.55 688.59 425.4 688.59 425.4 684.06 429.94 684.06 429.94 682.21"/>
  <polygon id="svg_15" fill="#fff" points="656.97 130.71 654.9 130.71 654.9 128.64 654.06 128.64 654.06 130.71 651.99 130.71 651.99 131.55 654.06 131.55 654.06 133.62 654.9 133.62 654.9 131.55 656.97 131.55 656.97 130.71"/>
  <polygon id="svg_16" fill="#fff" points="951.97 320.71 949.9 320.71 949.9 318.64 949.06 318.64 949.06 320.71 946.99 320.71 946.99 321.55 949.06 321.55 949.06 323.62 949.9 323.62 949.9 321.55 951.97 321.55 951.97 320.71"/>
  <polygon id="svg_17" fill="#fff" points="777.97 444.71 775.9 444.71 775.9 442.64 775.06 442.64 775.06 444.71 772.99 444.71 772.99 445.55 775.06 445.55 775.06 447.62 775.9 447.62 775.9 445.55 777.97 445.55 777.97 444.71"/>
  <polygon id="svg_18" fill="#fff" points="69.97 522.71 67.9 522.71 67.9 520.64 67.06 520.64 67.06 522.71 64.99 522.71 64.99 523.55 67.06 523.55 67.06 525.62 67.9 525.62 67.9 523.55 69.97 523.55 69.97 522.71"/>
  <polygon id="svg_19" fill="#fff" points="154.97 692.71 152.9 692.71 152.9 690.64 152.06 690.64 152.06 692.71 149.99 692.71 149.99 693.55 152.06 693.55 152.06 695.62 152.9 695.62 152.9 693.55 154.97 693.55 154.97 692.71"/>
  <polygon id="svg_20" fill="#fff" points="421.97 155.71 419.9 155.71 419.9 153.64 419.06 153.64 419.06 155.71 416.99 155.71 416.99 156.55 419.06 156.55 419.06 158.62 419.9 158.62 419.9 156.55 421.97 156.55 421.97 155.71"/>
  <polygon id="svg_21" fill="#fff" points="295.97 454.71 293.9 454.71 293.9 452.64 293.06 452.64 293.06 454.71 290.99 454.71 290.99 455.55 293.06 455.55 293.06 457.62 293.9 457.62 293.9 455.55 295.97 455.55 295.97 454.71"/>
  <polygon id="svg_22" fill="#fff" points="322.97 368.71 320.9 368.71 320.9 366.64 320.06 366.64 320.06 368.71 317.99 368.71 317.99 369.55 320.06 369.55 320.06 371.62 320.9 371.62 320.9 369.55 322.97 369.55 322.97 368.71"/>
  <g id="svg_23" opacity="0.7">
   <circle id="svg_24" fill="url(#b1395abd-e294-4466-9af9-40f9f1f4ad0f)" r="11.52" cy="555.65" cx="748.15"/>
  </g>
  <circle id="svg_25" opacity="0.2" r="10.67" cy="555.65" cx="748.15"/>
  <circle id="svg_26" opacity="0.2" r="11.93" cy="630.76" cx="776.88"/>
  <g id="svg_27" opacity="0.7">
   <path id="svg_28" fill="url(#a8b11853-451e-4181-8600-fa718044326b)" d="m669.97,307.030001a154.77,154.77 0 0 0 -17.5,-72c-5.49,-10.44 -10.5,-16.92 -14.36,-20.91a10.25,10.25 0 0 0 -11.74,-2.26a10.64,10.64 0 0 0 -4.11,2.65c-5.21,5.4 -9.92,12.54 -14,20.13a155.43,155.43 0 0 0 -18.37,74l0,15.48l-9.93,0l0,-180.01c0,-37.72 -8.44,-74.93 -25,-107.93c-7.84,-15.64 -15,-25.36 -20.49,-31.33a14.2,14.2 0 0 0 -21.35,0c-7.44,8.09 -14.16,18.79 -20,30.16c-17.39,33.72 -26.22,72 -26.22,110.82l0,178.22l-8.58,0l0,-16.23a155.39,155.39 0 0 0 -18.37,-73.95c-4.11,-7.59 -8.82,-14.73 -14,-20.13a10.27,10.27 0 0 0 -12,-2.18l0.36,0.19a10.76,10.76 0 0 0 -3.35,2.34c-3.85,4 -8.86,10.47 -14.35,20.91a154.77,154.77 0 0 0 -17.5,72l0,269l30.64,0l-3.38,22.11l0,66.13l25.06,0l0,-66.13l-3.35,-22.12l30.2,0l0,-245l8.58,0l0,243.94l24.47,0l-3.51,23.18l0,66.13l25.06,0l0,-66.13l-3.51,-23.21l33,0l-3.53,23.21l0,66.13l25.06,0l0,-66.13l-3.51,-23.21l19.54,0l0,-243.88l9.93,0l0,245.37l8.05,0l0,-0.37l26.62,0l-3.34,22.09l0,66.13l25.06,0l0,-66.13l-3.35,-22.12l27.07,0l0,-268.96z"/>
  </g>
  <polygon id="svg_29" fill="#535461" points="436.4 585.25 412.67 585.25 416.91 556.44 432.16 556.44 436.4 585.25"/>
  <g id="svg_30" opacity="0.1">
   <polygon id="svg_31" points="415.73 567.88 433.34 567.88 432.16 559.83 416.91 559.83 415.73 567.88"/>
  </g>
  <polygon id="svg_32" fill="#535461" points="639.75 585.25 616.03 585.25 620.26 556.44 635.52 556.44 639.75 585.25"/>
  <g id="svg_33" opacity="0.1">
   <polygon id="svg_34" points="619.08 567.88 636.7 567.88 635.52 559.83 620.26 559.83 619.08 567.88"/>
  </g>
  <polygon id="svg_35" fill="#535461" points="513.5 585.25 489.78 585.25 494.01 556.44 509.27 556.44 513.5 585.25"/>
  <g id="svg_36" opacity="0.1">
   <polygon id="svg_37" points="492.83 567.88 510.45 567.88 509.27 559.83 494.01 559.83 492.83 567.88"/>
  </g>
  <polygon id="svg_38" fill="#535461" points="561.8 585.25 538.08 585.25 542.31 556.44 557.56 556.44 561.8 585.25"/>
  <g id="svg_39" opacity="0.1">
   <polygon id="svg_40" points="541.13 567.88 558.75 567.88 557.56 559.83 542.31 559.83 541.13 567.88"/>
  </g>
  <rect id="svg_41" fill="#535461" height="6.78" width="169.46" y="318.35" x="436.4"/>
  <path id="svg_42" fill="#e0e0e0" d="m632.05,211.270001a9.55,9.55 0 0 0 -14.16,0c-4.93,5.26 -9.39,12.21 -13.28,19.6a154.77,154.77 0 0 0 -17.39,72l0,260.84l75,0l0,-261.94a154.22,154.22 0 0 0 -16.57,-70.14c-5.21,-10.16 -9.95,-16.52 -13.6,-20.36z"/>
  <path id="svg_43" fill="#e0e0e0" d="m416.98,211.270001a9.55,9.55 0 0 1 14.16,0c4.94,5.26 9.39,12.21 13.29,19.6a154.89,154.89 0 0 1 17.39,72l0,260.84l-75,0l0,-261.94a154.22,154.22 0 0 1 16.57,-70.14c5.2,-10.16 9.94,-16.52 13.59,-20.36z"/>
  <polygon id="svg_44" fill="#535461" points="387.25 307.33 405.05 307.42 405.05 329.36 387.25 329.36 387.25 307.33"/>
  <polygon id="svg_45" fill="#535461" points="444.02 307.33 461.82 307.42 461.82 329.36 444.02 329.36 444.02 307.33"/>
  <polygon id="svg_46" fill="#535461" points="587.22 307.33 605.01 307.42 605.01 329.36 587.22 329.36 587.22 307.33"/>
  <polygon id="svg_47" fill="#535461" points="643.99 307.33 661.78 307.42 661.78 329.36 643.99 329.36 643.99 307.33"/>
  <g id="svg_48" opacity="0.1">
   <path id="svg_49" d="m444.43,230.530001c-3.9,-7.39 -8.35,-14.34 -13.29,-19.6a9.51,9.51 0 0 0 -11.33,-2.13a10.11,10.11 0 0 1 2.86,2.13c4.93,5.26 9.39,12.21 13.28,19.6a154.75,154.75 0 0 1 17.39,72l0,260.82l8.48,0l0,-260.81a154.88,154.88 0 0 0 -17.39,-72.01z"/>
  </g>
  <g id="svg_50" opacity="0.1">
   <path id="svg_51" d="m611.39,231.250001c3.89,-7.39 8.35,-14.34 13.28,-19.6a9.92,9.92 0 0 1 3.28,-2.34a9.54,9.54 0 0 0 -10.9,2.34c-4.94,5.26 -9.4,12.21 -13.29,19.6a154.89,154.89 0 0 0 -17.39,72l0,260.86l7.63,0l0,-260.84a154.77,154.77 0 0 1 17.39,-72.02z"/>
  </g>
  <path id="svg_52" fill="url(#f1ea05b4-3102-498a-ab85-05d222a08540)" d="m424.86,649.650001l-0.65,0a11.54,11.54 0 0 1 -11.54,-11.54l0,-52.86l23.73,0l0,52.86a11.54,11.54 0 0 1 -11.54,11.54z"/>
  <path id="svg_53" fill="url(#a65a9945-4cea-45de-8969-2abf9ed9c602)" d="m501.97,649.650001l-0.66,0a11.54,11.54 0 0 1 -11.53,-11.54l0,-52.86l23.72,0l0,52.86a11.54,11.54 0 0 1 -11.53,11.54z"/>
  <path id="svg_54" fill="url(#e83da883-60d3-4fc8-a1fc-2d21e84cc652)" d="m550.26,649.650001l-0.67,0a11.54,11.54 0 0 1 -11.51,-11.54l0,-52.86l23.72,0l0,52.86a11.54,11.54 0 0 1 -11.54,11.54z"/>
  <path id="svg_55" fill="url(#e7319a41-e0d4-4be9-9de6-9ff87ed2cc66)" d="m628.22,649.650001l-0.63,0a11.54,11.54 0 0 1 -11.56,-11.54l0,-52.86l23.72,0l0,52.86a11.54,11.54 0 0 1 -11.53,11.54z"/>
  <path id="svg_56" fill="#eee" d="m533.93,6.750001a13.2,13.2 0 0 0 -20.21,0c-7,7.88 -13.4,18.29 -19,29.37c-16.46,32.84 -24.82,70.12 -24.82,107.92l0,418.61l107,0l0,-420.29c0,-36.73 -8,-73 -23.64,-105.1c-7.35,-15.23 -14.12,-24.7 -19.33,-30.51z"/>
  <rect id="svg_57" fill="#535461" rx="11" height="25.59" width="55.84" y="53.25" x="494.79"/>
  <g id="svg_58" opacity="0.1">
   <rect id="svg_59" height="4.11" width="105.91" y="158.35" x="470.48"/>
  </g>
  <path id="svg_60" fill="url(#a8b1f8cd-6e4b-4699-9cd1-501c51b12a87)" d="m761.04,311.330001l0,0a34.62,34.62 0 0 0 -10.22,-9l0,0a34.33,34.33 0 1 0 -17.17,64.07c0.73,0 1.46,0 2.17,-0.08a34.32,34.32 0 0 0 25.23,-54.93l-0.01,-0.06z"/>
  <path id="svg_61" opacity="0.2" d="m766.09,332.010001a32.45,32.45 0 0 1 -30.4,32.38c-0.67,0 -1.36,0.07 -2.05,0.07a32.46,32.46 0 1 1 16.23,-60.56l0,0a32.59,32.59 0 0 1 9.66,8.56l0,0a32.3,32.3 0 0 1 6.56,19.55z"/>
  <path id="svg_62" opacity="0.1" d="m725.65,311.420001a34.88,34.88 0 0 0 -4.84,2.55a7.61,7.61 0 0 0 -2.59,2.32a3,3 0 0 0 -0.06,3.31c0.79,1.08 2.31,1.24 3.65,1.32a9.34,9.34 0 0 0 4.18,-0.42a9,9 0 0 0 2.44,-1.77l2.79,-2.53c1,-0.88 2,-2.09 1.61,-3.33a3,3 0 0 0 -2.37,-1.6a9.92,9.92 0 0 0 -7,1.23"/>
  <g id="svg_63" opacity="0.1">
   <circle id="svg_64" r="1.71" cy="344.82" cx="714"/>
  </g>
  <g id="svg_65" opacity="0.1">
   <circle id="svg_66" r="6.26" cy="334" cx="748.72"/>
  </g>
  <g id="svg_67" opacity="0.1">
   <path id="svg_68" d="m759.59,312.460001l0,0a8.54,8.54 0 1 1 -9.67,-8.56l0,0a32.59,32.59 0 0 1 9.67,8.56z"/>
  </g>
  <g id="svg_69" opacity="0.1">
   <path id="svg_70" d="m760.17,350.690001a32.37,32.37 0 0 1 -24.48,13.7c0,-0.45 -0.06,-0.9 -0.06,-1.36a15.38,15.38 0 0 1 24.54,-12.34z"/>
  </g>
  <path id="svg_71" fill="url(#ef97273a-5cfd-4109-a624-feeb24fdeadc)" d="m317.76,496.580001l0,0a24.15,24.15 0 0 0 -7.14,-6.32l0,0a24,24 0 1 0 -12,44.7c0.51,0 1,0 1.52,-0.05a24,24 0 0 0 17.6,-38.33l0.02,0z"/>
  <path id="svg_72" opacity="0.2" d="m321.28,511.010001a22.64,22.64 0 0 1 -21.21,22.59c-0.47,0 -1,0 -1.43,0a22.64,22.64 0 1 1 11.32,-42.25l0,0a22.67,22.67 0 0 1 6.74,6l0,0a22.52,22.52 0 0 1 4.58,13.66z"/>
  <path id="svg_73" opacity="0.1" d="m293.06,496.650001a23.5,23.5 0 0 0 -3.37,1.77a5.54,5.54 0 0 0 -1.81,1.62a2.13,2.13 0 0 0 0,2.31a3.23,3.23 0 0 0 2.54,0.92a6.51,6.51 0 0 0 2.92,-0.29a6.29,6.29 0 0 0 1.71,-1.24l1.94,-1.76c0.68,-0.62 1.42,-1.46 1.12,-2.32a2,2 0 0 0 -1.65,-1.12a6.87,6.87 0 0 0 -4.87,0.86"/>
  <g id="svg_74" opacity="0.1">
   <circle id="svg_75" r="1.19" cy="519.94" cx="284.93"/>
  </g>
  <g id="svg_76" opacity="0.1">
   <circle id="svg_77" r="4.37" cy="512.4" cx="309.16"/>
  </g>
  <g id="svg_78" opacity="0.1">
   <path id="svg_79" d="m316.71,497.370001l0,0a6,6 0 1 1 -6.75,-6l0,0a22.67,22.67 0 0 1 6.75,6z"/>
  </g>
  <g id="svg_80" opacity="0.1">
   <path id="svg_81" d="m317.15,524.040001a22.59,22.59 0 0 1 -17.08,9.56c0,-0.31 0,-0.63 0,-1a10.73,10.73 0 0 1 17.12,-8.61l-0.04,0.05z"/>
  </g>
  <polyline id="svg_82" fill="none" points="837.69 539.42 859.49 551.02 842.47 570.06"/>
  <circle id="svg_83" fill="#fff" r="1.84" cy="428.23" cx="954.9"/>
 </g>
</svg>